<svg xmlns="http://www.w3.org/2000/svg" width="64" height="64" viewBox="0 0 64 64" role="img" aria-label="Omni Source strait logo">
  <defs>
    <radialGradient id="sky" cx="31" cy="26" r="36" gradientUnits="userSpaceOnUse">
      <stop offset="0" stop-color="#0e7490"/>
      <stop offset="0.55" stop-color="#0f172a"/>
      <stop offset="1" stop-color="#020617"/>
    </radialGradient>
    <linearGradient id="sea" x1="14" y1="13" x2="50" y2="52" gradientUnits="userSpaceOnUse">
      <stop offset="0" stop-color="#67e8f9"/>
      <stop offset="0.55" stop-color="#38bdf8"/>
      <stop offset="1" stop-color="#0ea5e9"/>
    </linearGradient>
    <linearGradient id="gold" x1="15" y1="12" x2="50" y2="48" gradientUnits="userSpaceOnUse">
      <stop offset="0" stop-color="#fde68a"/>
      <stop offset="0.45" stop-color="#f59e0b"/>
      <stop offset="1" stop-color="#fb7185"/>
    </linearGradient>
    <filter id="shadow" x="-20%" y="-20%" width="140%" height="140%">
      <feDropShadow dx="0" dy="3" stdDeviation="3" flood-color="#000000" flood-opacity="0.32"/>
    </filter>
  </defs>

  <circle cx="32" cy="32" r="30" fill="url(#sky)"/>
  <circle cx="32" cy="32" r="27.5" fill="none" stroke="#e0f2fe" stroke-opacity="0.2" stroke-width="1.2"/>
  <path d="M17 18C12 24 11 34 16 43C20 50 28 53 32 51C27 45 25 39 26 32C27 25 23 20 17 18Z"
        fill="#164e63" stroke="#7dd3fc" stroke-opacity="0.65" stroke-width="1.5"/>
  <path d="M47 18C52 24 53 34 48 43C44 50 36 53 32 51C37 45 39 39 38 32C37 25 41 20 47 18Z"
        fill="#14532d" stroke="#86efac" stroke-opacity="0.6" stroke-width="1.5"/>
  <path d="M20 26C25 22 29 22 33 26C37 30 42 30 47 26"
        fill="none" stroke="url(#sea)" stroke-width="4.2" stroke-linecap="round" filter="url(#shadow)"/>
  <path d="M17 36C23 31 29 31 34 36C39 41 45 41 50 36"
        fill="none" stroke="#e0f2fe" stroke-opacity="0.92" stroke-width="2.4" stroke-linecap="round"/>
  <path d="M21 43C25 40 30 40 33 43C37 46 42 46 46 43"
        fill="none" stroke="#67e8f9" stroke-opacity="0.8" stroke-width="2" stroke-linecap="round"/>
  <path d="M18 20C27 13 37 13 46 20"
        fill="none" stroke="url(#gold)" stroke-width="3" stroke-linecap="round"/>
  <path d="M21 23C28 18 36 18 43 23"
        fill="none" stroke="#fff7ed" stroke-opacity="0.82" stroke-width="1.4" stroke-linecap="round"/>
  <path d="M27 48L32 43L37 48" fill="none" stroke="#fde68a" stroke-width="1.6" stroke-linecap="round" stroke-linejoin="round"/>
</svg>
