{"images":[{"uri":"170516_mia337_032122_600_200Kfaces_8192px_OBJ.jpg","name":"170516_mia337_032122_600_200Kfaces_8192px_OBJ.jpg"}],"accessors":[{"componentType":5126,"max":[0.21414099633693695,0.3904480040073395,-0.34084999561309814],"bufferView":0,"count":120127,"type":"VEC3","min":[-0.6136569976806641,-0.6338899731636047,-0.825543999671936],"byteOffset":0,"name":"Node-Mesh_0_positions"},{"componentType":5126,"bufferView":0,"count":120127,"type":"VEC2","byteOffset":12,"name":"Node-Mesh_0_texcoords"},{"componentType":5125,"bufferView":1,"count":605388,"type":"SCALAR","byteOffset":0,"name":"Node-Mesh_0_indices"}],"textures":[{"source":0,"sampler":0}],"buffers":[{"byteLength":4824092,"uri":"170516_mia337_032122_600_200Kfaces_8192px_OBJ.bin","name":"170516_mia337_032122_600_200Kfaces_8192px_OBJ"}],"bufferViews":[{"byteLength":2402540,"byteStride":20,"target":34962,"byteOffset":0,"buffer":0},{"byteLength":2421552,"target":34963,"byteOffset":2402540,"buffer":0}],"samplers":[{"magFilter":9729,"minFilter":9987}],"scene":0,"nodes":[{"name":"Node","translation":[0.19975800067186356,0.6338899731636047,0.5831969976425171],"mesh":0}],"materials":[{"pbrMetallicRoughness":{"baseColorFactor":[1,1,1,1],"baseColorTexture":{"index":0},"metallicFactor":0},"extensions":{"KHR_materials_specular":{"specularFactor":0.3}},"name":"170516_mia337_032122_600_200Kfaces_8192px_OBJ"}],"scenes":[{"nodes":[0]}],"asset":{"generator":"CG美术之家","source":"https://www.cgmszj.com/model/109388.html","version":"2.0"},"meshes":[{"primitives":[{"mode":4,"indices":2,"material":0,"attributes":{"POSITION":0,"TEXCOORD_0":1}}],"name":"Node-Mesh"}]}